{
  "accessors": [
    {
      "bufferView": 2,
      "componentType": 5126,
      "count": 1225,
      "max": [
        2.544510841369629,
        1.6902172565460205,
        1.69020676612854
      ],
      "min": [
        -4.940877914428711,
        -1.6901731491088867,
        -1.6901962757110596
      ],
      "type": "VEC3"
    },
    {
      "bufferView": 2,
      "byteOffset": 14700,
      "componentType": 5126,
      "count": 1225,
      "max": [
        0.4605066478252411,
        1.0,
        1.0
      ],
      "min": [
        -1.0,
        -1.0,
        -1.0
      ],
      "type": "VEC3"
    },
    {
      "bufferView": 1,
      "componentType": 5126,
      "count": 1225,
      "max": [
        0.8750001192092896,
        1.0000001192092896
      ],
      "min": [
        0.1250000149011612,
        0.0
      ],
      "type": "VEC2"
    },
    {
      "bufferView": 0,
      "componentType": 5125,
      "count": 5100,
      "type": "SCALAR"
    },
    {
      "bufferView": 2,
      "byteOffset": 29400,
      "componentType": 5126,
      "count": 671,
      "max": [
        3.6990675926208496,
        1.6902172565460205,
        1.69020676612854
      ],
      "min": [
        -0.8663251996040344,
        -1.6901731491088867,
        -1.6901962757110596
      ],
      "type": "VEC3"
    },
    {
      "bufferView": 2,
      "byteOffset": 37452,
      "componentType": 5126,
      "count": 671,
      "max": [
        0.9998146295547485,
        0.9999996423721313,
        1.0
      ],
      "min": [
        -0.8112848401069641,
        -0.9999997615814209,
        -0.9999997615814209
      ],
      "type": "VEC3"
    },
    {
      "bufferView": 1,
      "byteOffset": 9800,
      "componentType": 5126,
      "count": 671,
      "max": [
        0.7447774410247803,
        0.7500001192092896
      ],
      "min": [
        0.375,
        0.5
      ],
      "type": "VEC2"
    },
    {
      "bufferView": 0,
      "byteOffset": 20400,
      "componentType": 5125,
      "count": 2640,
      "type": "SCALAR"
    },
    {
      "bufferView": 2,
      "byteOffset": 45504,
      "componentType": 5126,
      "count": 812,
      "max": [
        3.817692518234253,
        1.4802416563034058,
        1.4802415370941162
      ],
      "min": [
        3.422595262527466,
        -1.4802415370941162,
        -1.4802415370941162
      ],
      "type": "VEC3"
    },
    {
      "bufferView": 2,
      "byteOffset": 55248,
      "componentType": 5126,
      "count": 812,
      "max": [
        1.0,
        0.9769803881645203,
        0.9769803881645203
      ],
      "min": [
        -0.03527992218732834,
        -0.9769803881645203,
        -0.9769803881645203
      ],
      "type": "VEC3"
    },
    {
      "bufferView": 1,
      "byteOffset": 15168,
      "componentType": 5126,
      "count": 812,
      "max": [
        0.6105511784553528,
        0.7355512976646423
      ],
      "min": [
        0.389448881149292,
        0.5135648250579834
      ],
      "type": "VEC2"
    },
    {
      "bufferView": 0,
      "byteOffset": 30960,
      "componentType": 5125,
      "count": 3840,
      "type": "SCALAR"
    }
  ],
  "asset": {
    "extras": {
      "author": "Mokshith (https://sketchfab.com/Mokshith)",
      "license": "CC-BY-4.0 (http://creativecommons.org/licenses/by/4.0/)",
      "source": "https://sketchfab.com/3d-models/torch-27cfccebf3434abca9d2a934184fdfc7",
      "title": "Torch"
    },
    "generator": "Sketchfab-12.65.0",
    "version": "2.0"
  },
  "bufferViews": [
    {
      "buffer": 0,
      "byteLength": 46320,
      "name": "floatBufferViews",
      "target": 34963
    },
    {
      "buffer": 0,
      "byteLength": 21664,
      "byteOffset": 46320,
      "byteStride": 8,
      "name": "floatBufferViews",
      "target": 34962
    },
    {
      "buffer": 0,
      "byteLength": 64992,
      "byteOffset": 67984,
      "byteStride": 12,
      "name": "floatBufferViews",
      "target": 34962
    }
  ],
  "buffers": [
    {
      "byteLength": 132976,
      "uri": "scene.bin"
    }
  ],
  "materials": [
    {
      "doubleSided": true,
      "name": "Material",
      "pbrMetallicRoughness": {
        "baseColorFactor": [
          0.8,
          0.212443,
          0.0100117,
          1.0
        ],
        "metallicFactor": 0.0,
        "roughnessFactor": 0.9209446589541646
      }
    },
    {
      "doubleSided": true,
      "name": "Black",
      "pbrMetallicRoughness": {
        "baseColorFactor": [
          0.0100218,
          0.0100218,
          0.0100218,
          1.0
        ],
        "metallicFactor": 0.0,
        "roughnessFactor": 0.9977590573943093
      }
    },
    {
      "doubleSided": true,
      "name": "Material.001",
      "pbrMetallicRoughness": {
        "baseColorFactor": [
          0.8,
          0.8,
          0.8,
          1.0
        ],
        "metallicFactor": 0.0,
        "roughnessFactor": 0.7470177871865296
      }
    }
  ],
  "meshes": [
    {
      "name": "Cube_Material_0",
      "primitives": [
        {
          "attributes": {
            "NORMAL": 1,
            "POSITION": 0,
            "TEXCOORD_0": 2
          },
          "indices": 3,
          "material": 0,
          "mode": 4
        }
      ]
    },
    {
      "name": "Cube_Black_0",
      "primitives": [
        {
          "attributes": {
            "NORMAL": 5,
            "POSITION": 4,
            "TEXCOORD_0": 6
          },
          "indices": 7,
          "material": 1,
          "mode": 4
        }
      ]
    },
    {
      "name": "Cube_Material.001_0",
      "primitives": [
        {
          "attributes": {
            "NORMAL": 9,
            "POSITION": 8,
            "TEXCOORD_0": 10
          },
          "indices": 11,
          "material": 2,
          "mode": 4
        }
      ]
    }
  ],
  "nodes": [
    {
      "children": [
        1
      ],
      "matrix": [
        1.0,
        0.0,
        0.0,
        0.0,
        0.0,
        2.220446049250313e-16,
        -1.0,
        0.0,
        0.0,
        1.0,
        2.220446049250313e-16,
        0.0,
        0.0,
        0.0,
        0.0,
        1.0
      ],
      "name": "Sketchfab_model"
    },
    {
      "children": [
        2
      ],
      "matrix": [
        1.0,
        0.0,
        0.0,
        0.0,
        0.0,
        0.0,
        1.0,
        0.0,
        0.0,
        -1.0,
        0.0,
        0.0,
        0.0,
        0.0,
        0.0,
        1.0
      ],
      "name": "bb053991d86f49d9abfbfdabd78d542c.fbx"
    },
    {
      "children": [
        3,
        7,
        9,
        12,
        15,
        18,
        21,
        24
      ],
      "name": "RootNode"
    },
    {
      "children": [
        4,
        5,
        6
      ],
      "matrix": [
        100.0,
        0.0,
        0.0,
        0.0,
        0.0,
        -1.629206793918314e-05,
        -99.99999999999868,
        0.0,
        0.0,
        99.99999999999868,
        -1.629206793918314e-05,
        0.0,
        0.0,
        0.0,
        0.0,
        1.0
      ],
      "name": "Cube"
    },
    {
      "mesh": 0,
      "name": "Cube_Material_0"
    },
    {
      "mesh": 1,
      "name": "Cube_Black_0"
    },
    {
      "mesh": 2,
      "name": "Cube_Material.001_0"
    },
    {
      "children": [
        8
      ],
      "matrix": [
        -62.17778820453628,
        -44.7493975151447,
        64.27607701177313,
        0.0,
        -31.107921276359967,
        89.42870119892999,
        32.16840315612906,
        0.0,
        -71.87642197212746,
        0.006650146337033869,
        -69.52539047182856,
        0.0,
        1008.0576171875,
        712.2457275390625,
        -1035.8148193359375,
        1.0
      ],
      "name": "Camera"
    },
    {
      "name": "Object_8"
    },
    {
      "children": [
        10
      ],
      "matrix": [
        0.00019470718881642313,
        -999.9999999999811,
        -3.851849730105351e-12,
        0.0,
        999.9999999999783,
        0.00019470718881642313,
        -7.549790126404327e-05,
        0.0,
        7.549790126404258e-05,
        1.0848134397675909e-11,
        999.9999999999972,
        0.0,
        1400.833740234375,
        0.0,
        0.0,
        1.0
      ],
      "name": "Area"
    },
    {
      "children": [
        11
      ],
      "matrix": [
        1.0,
        0.0,
        0.0,
        0.0,
        0.0,
        2.220446049250313e-16,
        1.0,
        0.0,
        0.0,
        -1.0,
        2.220446049250313e-16,
        0.0,
        0.0,
        0.0,
        0.0,
        1.0
      ],
      "name": "Object_10"
    },
    {
      "name": "Object_11"
    },
    {
      "children": [
        13
      ],
      "matrix": [
        7.549789948768648e-05,
        -999.9999999999972,
        -7.16093850883226e-12,
        0.0,
        -0.00016292067978040947,
        -5.329070518200751e-12,
        -999.9999999999868,
        0.0,
        999.999999999984,
        7.549789959870878e-05,
        -0.00016292068005796523,
        0.0,
        0.0,
        0.0,
        -1239.563232421875,
        1.0
      ],
      "name": "Area.001"
    },
    {
      "children": [
        14
      ],
      "matrix": [
        1.0,
        0.0,
        0.0,
        0.0,
        0.0,
        2.220446049250313e-16,
        1.0,
        0.0,
        0.0,
        -1.0,
        2.220446049250313e-16,
        0.0,
        0.0,
        0.0,
        0.0,
        1.0
      ],
      "name": "Object_13"
    },
    {
      "name": "Object_14"
    },
    {
      "children": [
        16
      ],
      "matrix": [
        7.549789948768648e-05,
        -999.9999999999974,
        -7.105427357601002e-12,
        0.0,
        7.549789954319763e-05,
        -1.5543122344752192e-12,
        999.9999999999974,
        0.0,
        -999.9999999999944,
        -7.549789954319763e-05,
        7.549789948768648e-05,
        0.0,
        0.0,
        0.0,
        1300.0921630859375,
        1.0
      ],
      "name": "Area.002"
    },
    {
      "children": [
        17
      ],
      "matrix": [
        1.0,
        0.0,
        0.0,
        0.0,
        0.0,
        2.220446049250313e-16,
        1.0,
        0.0,
        0.0,
        -1.0,
        2.220446049250313e-16,
        0.0,
        0.0,
        0.0,
        0.0,
        1.0
      ],
      "name": "Object_16"
    },
    {
      "name": "Object_17"
    },
    {
      "children": [
        19
      ],
      "matrix": [
        0.00019470718892744543,
        -999.9999999999809,
        -1.3733189992825507e-11,
        0.0,
        -999.9999999999052,
        -0.00019470718881642313,
        0.00038941437731121177,
        0.0,
        -0.0003894143773112071,
        -6.208858870094042e-11,
        -999.9999999999241,
        0.0,
        -1394.4031982421875,
        0.0,
        0.0,
        1.0
      ],
      "name": "Area.003"
    },
    {
      "children": [
        20
      ],
      "matrix": [
        1.0,
        0.0,
        0.0,
        0.0,
        0.0,
        2.220446049250313e-16,
        1.0,
        0.0,
        0.0,
        -1.0,
        2.220446049250313e-16,
        0.0,
        0.0,
        0.0,
        0.0,
        1.0
      ],
      "name": "Object_19"
    },
    {
      "name": "Object_20"
    },
    {
      "children": [
        22
      ],
      "matrix": [
        999.999999999993,
        0.00011920928955078099,
        -7.888609052210118e-28,
        0.0,
        -0.00011920928955078065,
        999.99999999999,
        -7.549790126404328e-05,
        0.0,
        -9.000051172261608e-12,
        7.549790126404275e-05,
        999.9999999999972,
        0.0,
        0.0,
        1500.0,
        0.0,
        1.0
      ],
      "name": "Area.004"
    },
    {
      "children": [
        23
      ],
      "matrix": [
        1.0,
        0.0,
        0.0,
        0.0,
        0.0,
        2.220446049250313e-16,
        1.0,
        0.0,
        0.0,
        -1.0,
        2.220446049250313e-16,
        0.0,
        0.0,
        0.0,
        0.0,
        1.0
      ],
      "name": "Object_22"
    },
    {
      "name": "Object_23"
    },
    {
      "children": [
        25
      ],
      "matrix": [
        100.0,
        0.0,
        0.0,
        0.0,
        0.0,
        99.99999999999972,
        -7.5497901264043296e-06,
        0.0,
        0.0,
        7.5497901264043296e-06,
        99.99999999999972,
        0.0,
        429.5716857910156,
        0.0,
        0.0,
        1.0
      ],
      "name": "Point"
    },
    {
      "children": [
        26
      ],
      "matrix": [
        1.0,
        0.0,
        0.0,
        0.0,
        0.0,
        2.220446049250313e-16,
        1.0,
        0.0,
        0.0,
        -1.0,
        2.220446049250313e-16,
        0.0,
        0.0,
        0.0,
        0.0,
        1.0
      ],
      "name": "Object_25"
    },
    {
      "name": "Object_26"
    }
  ],
  "scene": 0,
  "scenes": [
    {
      "name": "Sketchfab_Scene",
      "nodes": [
        0
      ]
    }
  ]
}
